<svg id="Design" xmlns="http://www.w3.org/2000/svg" viewBox="0 0 1080 1080"><defs><style>.cls-1{fill:#0032a0;}.cls-2{fill:#fff;}</style></defs><path class="cls-1" d="M540,81.55C286.82,81.55,81.55,286.79,81.55,540S286.82,998.45,540,998.45,998.45,793.18,998.45,540,793.18,81.55,540,81.55Z"/><path class="cls-2" d="M540,198.27a340.64,340.64,0,1,1-133,26.85,339.57,339.57,0,0,1,133-26.85m0-3c-190.39,0-344.73,154.34-344.73,344.72S349.61,884.72,540,884.72,884.73,730.38,884.73,540,730.39,195.27,540,195.27Z"/><path class="cls-2" d="M540,195.27C349.62,195.27,195.27,349.6,195.27,540S349.62,884.73,540,884.73,884.73,730.38,884.73,540,730.38,195.27,540,195.27Z"/><path class="cls-2" d="M540,198.27a340.64,340.64,0,1,1-133,26.85,339.57,339.57,0,0,1,133-26.85m0-3c-190.39,0-344.73,154.34-344.73,344.72S349.61,884.72,540,884.72,884.73,730.38,884.73,540,730.39,195.27,540,195.27Z"/><path class="cls-1" d="M540,204.23a334.68,334.68,0,1,1-130.69,26.38A333.85,333.85,0,0,1,540,204.23m0-2.95c-187.06,0-338.71,151.65-338.71,338.71S352.94,878.71,540,878.71,878.71,727.06,878.71,540,727.07,201.28,540,201.28Z"/><path class="cls-2" d="M540,85.55A454.57,454.57,0,0,1,716.88,958.74,454.57,454.57,0,0,1,363.12,121.26,451.47,451.47,0,0,1,540,85.55m0-4C286.82,81.55,81.55,286.79,81.55,540S286.82,998.45,540,998.45,998.45,793.18,998.45,540,793.18,81.55,540,81.55Z"/><path class="cls-2" d="M127.69,659.53l64-22.81,9.42,26.46a27.62,27.62,0,0,1,1.63,13.43,21.07,21.07,0,0,1-4.91,10.85,24.43,24.43,0,0,1-10.57,7,23.9,23.9,0,0,1-12.62,1.21,20.92,20.92,0,0,1-10.61-5.5,29.34,29.34,0,0,1-7.24-11.71l-3.74-10.51L133.2,675Zm37.6,4.06,2.71,7.63q1.86,5.22,5.5,7a10.1,10.1,0,0,0,8.09.18,9.89,9.89,0,0,0,6.11-5.24c1.1-2.43,1-5.39-.21-8.87l-2.72-7.63Z"/><path class="cls-2" d="M241.89,742.85,184.83,779.8,175.89,766l57.07-37Z"/><path class="cls-2" d="M225.53,831.87,273,783.24l11.76,11.47-38.18,39.1,20.24,19.75-9.33,9.55Z"/><path class="cls-2" d="M358.83,851.89l-35.47,58-14-8.57,35.46-58Z"/><path class="cls-2" d="M383,939.54l21-64.65,26.71,8.68a27.62,27.62,0,0,1,11.63,6.9A21.1,21.1,0,0,1,448,901a24.25,24.25,0,0,1-.93,12.63,23.67,23.67,0,0,1-6.73,10.74,20.85,20.85,0,0,1-10.84,5A29.17,29.17,0,0,1,415.79,928l-10.61-3.45-6.52,20.08Zm26.15-27.31,7.71,2.5c3.51,1.15,6.48,1.11,8.89-.09a10.1,10.1,0,0,0,5.08-6.29,9.92,9.92,0,0,0-.42-8q-1.89-3.54-7.16-5.24l-7.7-2.51Z"/><path class="cls-2" d="M518.61,900l-5.68,67.75-16.37-1.37,5.68-67.75Z"/><path class="cls-2" d="M626.23,891.32l10.91,67.1-13.76,2.23-33-34.38-.43.06,6.3,38.73L580,967.7l-10.9-67.1,14-2.27,32.69,34.37.56-.09L610.05,894Z"/><path class="cls-2" d="M716.56,930.76l-15.8,7.88-9.83-71.07,19.58-9.77,50.87,50.6-15.8,7.88L735.2,905.51,714.2,916Zm-4.43-27.69,14-7L708.59,877.9l-.47.24Z"/><path class="cls-2" d="M807.65,811.28a7.78,7.78,0,0,0-6-2.18q-3.3.28-6.83,3.56t-4,6.2a5.65,5.65,0,0,0,1.36,5,5.09,5.09,0,0,0,5.14,1.68,22.93,22.93,0,0,0,7.21-3l5.18-3q8.9-5.22,16.25-5.17t12.92,6q6.57,7.11,5,16t-10.83,17.5q-9.39,8.71-19,9.71t-17.81-7.63l11.53-10.71a9.34,9.34,0,0,0,7.7,3,14.36,14.36,0,0,0,8.15-4.15c2.41-2.25,3.86-4.48,4.33-6.7a6,6,0,0,0-1.39-5.64,5.31,5.31,0,0,0-5.05-1.54,26.52,26.52,0,0,0-8.07,3.4l-6.34,3.62q-7.83,4.51-14.64,4.66t-12.06-5.54a18.37,18.37,0,0,1-5.07-10.43,22.49,22.49,0,0,1,1.9-11.84,34.14,34.14,0,0,1,8.31-11.32,32.75,32.75,0,0,1,11.87-7.39,21.35,21.35,0,0,1,11.71-.68,19.92,19.92,0,0,1,10,5.94Z"/><path class="cls-2" d="M188.23,433.4l-63.55-24.16,10.08-26.5q4.08-10.71,10.59-14.49a15.23,15.23,0,0,1,13.72-1.05,13.85,13.85,0,0,1,7.8,6.76,16.72,16.72,0,0,1,1.46,10.36l.61.23a16.28,16.28,0,0,1,4.78-6.33A15.49,15.49,0,0,1,181,375a16.43,16.43,0,0,1,8.72,1,17.51,17.51,0,0,1,8.14,6.08,18.83,18.83,0,0,1,3.46,9.94,30,30,0,0,1-2.24,12.86Zm-31.58-29.59,3.23-8.5a10.55,10.55,0,0,0,.5-6.91,6.63,6.63,0,0,0-4.29-4.4,6.53,6.53,0,0,0-5.87.36,10,10,0,0,0-4.17,5.41l-3.33,8.75Zm25,9.53,3.62-9.49c1.26-3.34,1.57-6,.91-8.09a6.79,6.79,0,0,0-4.37-4.38,7.75,7.75,0,0,0-6.78.31,11.09,11.09,0,0,0-4.8,6.12l-3.72,9.77Z"/><path class="cls-2" d="M232.29,339l-54.38-40.79,28.44-37.92,10.67,8-18.58,24.78,11.15,8.37,17.13-22.84,10.71,8L220.3,309.5l11.17,8.39,18.58-24.78,10.68,8Z"/><path class="cls-2" d="M263,221.26,255,210.61,300.8,176l8.05,10.65-16.46,12.42,32.94,43.6-12.93,9.76-32.93-43.6Z"/><path class="cls-2" d="M364.64,155.85l-4.71-12.49,53.75-20.29,4.72,12.48-19.29,7.28L418.41,194l-15.16,5.72L384,148.55Z"/><path class="cls-2" d="M487.12,176.3l-5.4-67.77L529,104.76l1.06,13.3-30.87,2.47,1.11,13.89,28.45-2.27,1.06,13.34-28.45,2.27,1.11,13.93,30.87-2.46,1.06,13.3Z"/><path class="cls-2" d="M587,175.45l13.44-66.64L628,114.37a29.37,29.37,0,0,1,12.39,5.3,20.16,20.16,0,0,1,6.86,9.36,23.13,23.13,0,0,1,.58,12.43,22.24,22.24,0,0,1-5.4,11.14,19.33,19.33,0,0,1-10,5.6l8.71,28.17-17.57-3.55L616,157.56l-8.27-1.67-4.6,22.81Zm23.27-32.25,7.94,1.6q5.43,1.09,8.7-.49t4.2-6.22q1.86-9.21-9.24-11.45L614,125Z"/><path class="cls-2" d="M898.51,335.64a11.06,11.06,0,0,0,3.21-7.06,13.87,13.87,0,0,0-2.33-8.17,14.32,14.32,0,0,0-10.71-7.19q-6.82-.89-15.1,4.21T862.84,329q-2.39,6.43,1.6,12.93,3.51,5.68,8.1,7.1a11.16,11.16,0,0,0,9.24-1.28l-7.06-11.49,10.2-6.27,15.37,25-7.66,4.71a30.33,30.33,0,0,1-15.35,4.93,25.78,25.78,0,0,1-14.08-3.81,36.61,36.61,0,0,1-16.45-28.19A29.32,29.32,0,0,1,851,316.5q4.49-7.61,13.64-13.24,9.46-5.82,18.42-6.23a30,30,0,0,1,16.32,3.71,33.12,33.12,0,0,1,12.11,11.83,33.66,33.66,0,0,1,5,13.68,27.49,27.49,0,0,1-1.52,13.13,24.12,24.12,0,0,1-7.68,10.42Z"/><path class="cls-2" d="M937,476.35q-10.9,2.67-19.51.34a29.37,29.37,0,0,1-14.28-8.51,35.53,35.53,0,0,1-7.84-32A29.27,29.27,0,0,1,904.11,422q6.55-6,17.42-8.68T941,413a29.38,29.38,0,0,1,14.27,8.48,35.66,35.66,0,0,1,7.85,32.05,29.54,29.54,0,0,1-8.71,14.15Q947.91,473.68,937,476.35ZM933,460q9.71-2.37,13.82-7.66t2.37-12.44q-1.75-7.12-7.85-9.92t-15.81-.41q-9.71,2.38-13.82,7.68t-2.37,12.42q1.75,7.16,7.86,9.94T933,460Z"/><path class="cls-2" d="M974.77,553.49l-50.7,11.81,0,.56,48.65,18.53-1.25,18.35-66.27-27.48,1.48-21.82L976,535.15Z"/><polygon class="cls-2" points="910.46 684.39 909.65 709.63 933.41 718.21 909.15 725.24 908.34 750.48 894.15 729.58 869.89 736.61 885.39 716.67 871.2 695.76 894.97 704.34 910.46 684.39"/><polygon class="cls-2" points="798.02 224.23 772.88 221.82 762.83 245.03 757.36 220.35 732.19 217.99 753.95 205.13 748.45 180.46 767.37 197.19 789.14 184.34 779.09 207.5 798.02 224.23"/><polygon class="cls-2" points="153.46 541.07 162.67 564.6 141.4 550.98 121.88 566.97 128.25 542.54 106.99 528.92 132.19 527.45 138.57 503.01 147.78 526.51 172.99 525.04 153.46 541.07"/><path class="cls-1" d="M391.69,544.61C343,539.86,307.85,598,260.24,577.1c4.61,53.71,214.18,93.18,204.28,28.81-8.46,11.64-31.28,7.19-43.1,2.72-6.75-3.72-11.47-12.46-17-18-32.62-48,90.61-4.52,79.45,31.68-3.64,11.77-4.76,21.82-11.39,32.9-6.83,11.43-15.3,21.75-22.39,33-15.5,24.61-16.4,50.29,9.12,69.28,9.94,7.4,22.72,9.74,35.06,10.85,36.09,3.25,69.88-9.79,106.05-11.86,16.79-1,33.77-1.59,50.33,1.4,25.1,4.54,39.53,16.63,54.33,36.16-1.77-35.08-3.59-70.43-12.21-104.48a172.73,172.73,0,0,0-19.66-51.31v0c.29-1.1.59-2.19.85-3.3l124.34,16.7,17.76-17-140-10.07a151.61,151.61,0,0,0,2-19.31L835,616.61l18.12-17.35L835,581.94,678.08,593.23a151.61,151.61,0,0,0-2-19.31l140-10.07-17.76-17L674,563.56a150.65,150.65,0,0,0-18-43.37l99.73-76.12.54-24.57L650.22,511.33a154.87,154.87,0,0,0-12.26-15L756.88,393.35l.56-25.07-25.07.56-103,118.92a154.28,154.28,0,0,0-15-12.27l91.84-106.06-24.56.54L605.53,469.7a150.93,150.93,0,0,0-43.37-18l16.69-124.32-17-17.76-10.09,140a152.94,152.94,0,0,0-19.29-2l11.29-156.89-17.34-18.14-17.33,18.14L520.4,447.62a153.29,153.29,0,0,0-19.3,2L491,309.63l-17,17.76,16.7,124.32a150.46,150.46,0,0,0-43.37,18L371.24,370l-24.56-.54L438.51,475.5c-1.92,1.36-3.79,2.78-5.64,4.24q-7.53.45-15.14,1.39L320.52,368.84l-25.07-.56.56,25.07,104.24,90.24h0c-8.27,1.31-16.55,2.75-24.85,4.13h0L296.59,419.5l.56,24.57,60.73,46.36c-34.08,4.77-67.57,5.4-97.64-14.31,34.38,44,82.18,33,130.17,24.61,7.95-1.39,15.92-2.71,23.83-3.68,21.52-2.64,42.63-2.78,62.11,4.9,11,4.33,20.23,16,25.44,26.11,4.36,8.49,11.42,26.06,4.74,34.83a5.49,5.49,0,0,1-2.07,1.76c-2.38,1-5-.57-7.15-2-22-15-46.37-19.08-72.46-18.29,13.51,3.68,27.14,6.26,39.66,12.86a120.61,120.61,0,0,1,19.88,13.13c5.47,4.45,10,10.63,16.16,13.89,15.33,8.11,30.88,6.42,47.4,4.27,99.3-10.32,130.34,81.46,138.21,162.57-.36-3.68-20.84-9-24.12-9.92a133.8,133.8,0,0,0-27.5-4.14c-18.54-1-37.11,1-55.47,3.4-34.76,4.46-73.58,16-106.12-3.21-7-4.12-13.51-11-11.41-19.66,27.78,17.48,66.75-4.58,66.08-37.38-4.19,13.43-22.56,21.8-36,21.51-29.27-3.56,7.83-57.76,11.43-71.39C517.57,573.69,435,547.81,391.69,544.61ZM341.6,609.38A202.09,202.09,0,0,1,307.36,599c12.3-5.66,24.7-13.61,37-19.92C343.42,587.27,342.29,598.18,341.6,609.38Z"/></svg>