<svg id="Design" xmlns="http://www.w3.org/2000/svg" viewBox="0 0 1200 300"><defs><style>.cls-1{font-size:126.45px;font-family:Inter-ExtraBold, Inter;font-weight:800;letter-spacing:-0.06em;}.cls-2{letter-spacing:-0.07em;}.cls-3{letter-spacing:-0.06em;}.cls-4{letter-spacing:-0.08em;}.cls-5{letter-spacing:-0.09em;}</style></defs><text class="cls-1" transform="translate(382.28 205.37)">Bet<tspan class="cls-2" x="187.62" y="0">t</tspan><tspan class="cls-3" x="229.47" y="0">erG</tspan><tspan class="cls-4" x="436.04" y="0">o</tspan><tspan class="cls-5" x="504.52" y="0">v</tspan><tspan x="567.93" y="0">.PH</tspan></text><path d="M280.21,182.09a82.08,82.08,0,0,0-1-10.35l75-5.4-9.51-9.1L278,166.19A80.85,80.85,0,0,0,268.39,143l53.43-40.78L322.11,89l-56.83,49.2a81.91,81.91,0,0,0-6.57-8.06L322.43,75l.3-13.43-13.43.3-55.16,63.71a82.31,82.31,0,0,0-8.07-6.57l49.21-56.83-13.16.3L241.34,115.9a81,81,0,0,0-23.24-9.64L227,39.65l-9.1-9.51-5.4,75a81.74,81.74,0,0,0-10.34-1.06L208.25,20,199,10.29,189.68,20l6,84.06a82.09,82.09,0,0,0-10.35,1.06l-5.39-75-9.1,9.51,8.94,66.61a80.87,80.87,0,0,0-23.24,9.64L115.81,62.47l-13.16-.3L151.85,119c-1,.73-2,1.49-3,2.27-2.69.16-5.4.41-8.11.74L88.63,61.86l-13.43-.3L75.5,75l55.85,48.35h0c-4.43.7-8.86,1.48-13.31,2.21h0L75.81,89l.3,13.16L108.65,127c-18.26,2.55-36.21,2.89-52.32-7.67,18.43,23.59,44,17.66,69.75,13.19,4.26-.75,8.53-1.45,12.77-2,11.52-1.41,22.84-1.49,33.27,2.63,5.88,2.32,10.84,8.56,13.63,14,2.34,4.55,6.12,14,2.54,18.66a2.8,2.8,0,0,1-1.11.94c-1.27.56-2.68-.3-3.83-1.08-11.8-8.05-24.84-10.23-38.82-9.8,7.24,2,14.54,3.35,21.25,6.89a65,65,0,0,1,10.65,7c2.93,2.39,5.37,5.7,8.66,7.44,8.21,4.35,16.55,3.44,25.4,2.29,53.2-5.53,69.83,43.65,74.05,87.11-.19-2-11.17-4.85-12.93-5.32a71.73,71.73,0,0,0-14.73-2.22c-9.93-.53-19.88.56-29.72,1.82-18.63,2.39-39.43,8.58-56.86-1.72-3.73-2.2-7.24-5.9-6.11-10.53,14.89,9.37,35.76-2.46,35.4-20-2.24,7.2-12.08,11.68-19.27,11.53-15.68-1.91,4.2-31,6.13-38.25,7.76-30.31-36.51-44.18-59.69-45.89-26.08-2.55-44.92,28.59-70.43,17.4,2.48,28.78,114.76,49.93,109.46,15.44-4.54,6.24-16.76,3.85-23.1,1.46-3.61-2-6.14-6.68-9.08-9.62-17.48-25.7,48.54-2.42,42.56,17-1.94,6.31-2.55,11.69-6.1,17.63-3.66,6.12-8.2,11.66-12,17.68-8.31,13.19-8.79,26.95,4.88,37.12,5.33,4,12.17,5.22,18.79,5.81,19.33,1.74,37.44-5.24,56.81-6.35,9-.52,18.1-.85,27,.75,13.45,2.43,21.18,8.91,29.11,19.38-.95-18.8-1.92-37.74-6.54-56a92.64,92.64,0,0,0-10.53-27.49l0,0c.15-.58.34-1.15.48-1.73l66.62,8.94,9.51-9.1-75-5.4a81.74,81.74,0,0,0,1-10.34l84.07,6.05,9.71-9.29L364.28,176ZM99.93,190.74a107.46,107.46,0,0,1-18.35-5.58c6.59-3,13.23-7.29,19.85-10.67C100.9,178.89,100.29,184.74,99.93,190.74Z"/></svg>