<svg id="Design" xmlns="http://www.w3.org/2000/svg" viewBox="0 0 1080 1080"><defs><style>.cls-1{fill:#0032a0;}.cls-2{fill:#fff;}</style></defs><path class="cls-1" d="M540,81.55C286.82,81.55,81.55,286.79,81.55,540S286.82,998.45,540,998.45,998.45,793.18,998.45,540,793.18,81.55,540,81.55Z"/><path class="cls-2" d="M540,198.27a340.64,340.64,0,1,1-133,26.85,339.57,339.57,0,0,1,133-26.85m0-3c-190.39,0-344.73,154.34-344.73,344.72S349.61,884.72,540,884.72,884.73,730.38,884.73,540,730.39,195.27,540,195.27Z"/><path class="cls-2" d="M127.69,659.53l64-22.81,9.42,26.46a27.62,27.62,0,0,1,1.63,13.43,21.07,21.07,0,0,1-4.91,10.85,24.43,24.43,0,0,1-10.57,7,23.9,23.9,0,0,1-12.62,1.21,20.92,20.92,0,0,1-10.61-5.5,29.34,29.34,0,0,1-7.24-11.71l-3.74-10.51L133.2,675Zm37.6,4.06,2.71,7.63q1.86,5.22,5.5,7a10.1,10.1,0,0,0,8.09.18,9.89,9.89,0,0,0,6.11-5.24c1.1-2.43,1-5.39-.21-8.87l-2.72-7.63Z"/><path class="cls-2" d="M241.89,742.85,184.83,779.8,175.89,766l57.07-37Z"/><path class="cls-2" d="M225.53,831.87,273,783.24l11.76,11.47-38.18,39.1,20.24,19.75-9.33,9.55Z"/><path class="cls-2" d="M358.83,851.89l-35.47,58-14-8.57,35.46-58Z"/><path class="cls-2" d="M383,939.54l21-64.65,26.71,8.68a27.62,27.62,0,0,1,11.63,6.9A21.1,21.1,0,0,1,448,901a24.25,24.25,0,0,1-.93,12.63,23.67,23.67,0,0,1-6.73,10.74,20.85,20.85,0,0,1-10.84,5A29.17,29.17,0,0,1,415.79,928l-10.61-3.45-6.52,20.08Zm26.15-27.31,7.71,2.5c3.51,1.15,6.48,1.11,8.89-.09a10.1,10.1,0,0,0,5.08-6.29,9.92,9.92,0,0,0-.42-8q-1.89-3.54-7.16-5.24l-7.7-2.51Z"/><path class="cls-2" d="M518.61,900l-5.68,67.75-16.37-1.37,5.68-67.75Z"/><path class="cls-2" d="M626.23,891.32l10.91,67.1-13.76,2.23-33-34.38-.43.06,6.3,38.73L580,967.7l-10.9-67.1,14-2.27,32.69,34.37.56-.09L610.05,894Z"/><path class="cls-2" d="M716.56,930.76l-15.8,7.88-9.83-71.07,19.58-9.77,50.87,50.6-15.8,7.88L735.2,905.51,714.2,916Zm-4.43-27.69,14-7L708.59,877.9l-.47.24Z"/><path class="cls-2" d="M807.65,811.28a7.78,7.78,0,0,0-6-2.18q-3.3.28-6.83,3.56t-4,6.2a5.65,5.65,0,0,0,1.36,5,5.09,5.09,0,0,0,5.14,1.68,22.93,22.93,0,0,0,7.21-3l5.18-3q8.9-5.22,16.25-5.17t12.92,6q6.57,7.11,5,16t-10.83,17.5q-9.39,8.71-19,9.71t-17.81-7.63l11.53-10.71a9.34,9.34,0,0,0,7.7,3,14.36,14.36,0,0,0,8.15-4.15c2.41-2.25,3.86-4.48,4.33-6.7a6,6,0,0,0-1.39-5.64,5.31,5.31,0,0,0-5.05-1.54,26.52,26.52,0,0,0-8.07,3.4l-6.34,3.62q-7.83,4.51-14.64,4.66t-12.06-5.54a18.37,18.37,0,0,1-5.07-10.43,22.49,22.49,0,0,1,1.9-11.84,34.14,34.14,0,0,1,8.31-11.32,32.75,32.75,0,0,1,11.87-7.39,21.35,21.35,0,0,1,11.71-.68,19.92,19.92,0,0,1,10,5.94Z"/><path class="cls-2" d="M188.23,433.4l-63.55-24.16,10.08-26.5q4.08-10.71,10.59-14.49a15.23,15.23,0,0,1,13.72-1.05,13.85,13.85,0,0,1,7.8,6.76,16.72,16.72,0,0,1,1.46,10.36l.61.23a16.28,16.28,0,0,1,4.78-6.33A15.49,15.49,0,0,1,181,375a16.43,16.43,0,0,1,8.72,1,17.51,17.51,0,0,1,8.14,6.08,18.83,18.83,0,0,1,3.46,9.94,30,30,0,0,1-2.24,12.86Zm-31.58-29.59,3.23-8.5a10.55,10.55,0,0,0,.5-6.91,6.63,6.63,0,0,0-4.29-4.4,6.53,6.53,0,0,0-5.87.36,10,10,0,0,0-4.17,5.41l-3.33,8.75Zm25,9.53,3.62-9.49c1.26-3.34,1.57-6,.91-8.09a6.79,6.79,0,0,0-4.37-4.38,7.75,7.75,0,0,0-6.78.31,11.09,11.09,0,0,0-4.8,6.12l-3.72,9.77Z"/><path class="cls-2" d="M232.29,339l-54.38-40.79,28.44-37.92,10.67,8-18.58,24.78,11.15,8.37,17.13-22.84,10.71,8L220.3,309.5l11.17,8.39,18.58-24.78,10.68,8Z"/><path class="cls-2" d="M263,221.26,255,210.61,300.8,176l8.05,10.65-16.46,12.42,32.94,43.6-12.93,9.76-32.93-43.6Z"/><path class="cls-2" d="M364.64,155.85l-4.71-12.49,53.75-20.29,4.72,12.48-19.29,7.28L418.41,194l-15.16,5.72L384,148.55Z"/><path class="cls-2" d="M487.12,176.3l-5.4-67.77L529,104.76l1.06,13.3-30.87,2.47,1.11,13.89,28.45-2.27,1.06,13.34-28.45,2.27,1.11,13.93,30.87-2.46,1.06,13.3Z"/><path class="cls-2" d="M587,175.45l13.44-66.64L628,114.37a29.37,29.37,0,0,1,12.39,5.3,20.16,20.16,0,0,1,6.86,9.36,23.13,23.13,0,0,1,.58,12.43,22.24,22.24,0,0,1-5.4,11.14,19.33,19.33,0,0,1-10,5.6l8.71,28.17-17.57-3.55L616,157.56l-8.27-1.67-4.6,22.81Zm23.27-32.25,7.94,1.6q5.43,1.09,8.7-.49t4.2-6.22q1.86-9.21-9.24-11.45L614,125Z"/><path class="cls-2" d="M898.51,335.64a11.06,11.06,0,0,0,3.21-7.06,13.87,13.87,0,0,0-2.33-8.17,14.32,14.32,0,0,0-10.71-7.19q-6.82-.89-15.1,4.21T862.84,329q-2.39,6.43,1.6,12.93,3.51,5.68,8.1,7.1a11.16,11.16,0,0,0,9.24-1.28l-7.06-11.49,10.2-6.27,15.37,25-7.66,4.71a30.33,30.33,0,0,1-15.35,4.93,25.78,25.78,0,0,1-14.08-3.81,36.61,36.61,0,0,1-16.45-28.19A29.32,29.32,0,0,1,851,316.5q4.49-7.61,13.64-13.24,9.46-5.82,18.42-6.23a30,30,0,0,1,16.32,3.71,33.12,33.12,0,0,1,12.11,11.83,33.66,33.66,0,0,1,5,13.68,27.49,27.49,0,0,1-1.52,13.13,24.12,24.12,0,0,1-7.68,10.42Z"/><path class="cls-2" d="M937,476.35q-10.9,2.67-19.51.34a29.37,29.37,0,0,1-14.28-8.51,35.53,35.53,0,0,1-7.84-32A29.27,29.27,0,0,1,904.11,422q6.55-6,17.42-8.68T941,413a29.38,29.38,0,0,1,14.27,8.48,35.66,35.66,0,0,1,7.85,32.05,29.54,29.54,0,0,1-8.71,14.15Q947.91,473.68,937,476.35ZM933,460q9.71-2.37,13.82-7.66t2.37-12.44q-1.75-7.12-7.85-9.92t-15.81-.41q-9.71,2.38-13.82,7.68t-2.37,12.42q1.75,7.16,7.86,9.94T933,460Z"/><path class="cls-2" d="M974.77,553.49l-50.7,11.81,0,.56,48.65,18.53-1.25,18.35-66.27-27.48,1.48-21.82L976,535.15Z"/><path class="cls-2" d="M341.81,479c4-.4,8.27-.92,12.84-1.56,2.08-.28,4.27-.61,6.58-1l-66-57.17.56,24.54Z"/><path class="cls-2" d="M386.12,472.42c3.54-.6,7.08-1.2,10.61-1.76,3.3-.52,6.42-1,9.4-1.41l-87-100.53-25-.55.56,25Z"/><path class="cls-2" d="M682.41,631.41c.94,1.61,1.83,3.25,2.72,4.89l111.22,14.93,17.74-17-136-9.79C679.57,626.75,681,629,682.41,631.41Z"/><path class="cls-2" d="M430.57,466.68c4.29-.27,8.53-.41,12.55-.41h.25l-73.6-96.41-24.54-.55,84.36,97.44Z"/><path class="cls-2" d="M833,581.57,676.24,592.85a149.35,149.35,0,0,0-2-19.28l139.81-10.06-17.74-17L672.16,563.22a150.42,150.42,0,0,0-17.95-43.32l99.61-76,.54-24.54-106,91.72a153.22,153.22,0,0,0-12.24-15L755,393.2l.56-25-25,.55L627.64,487.5a153.84,153.84,0,0,0-15-12.25l91.73-105.94-24.53.55-76,99.61a150.86,150.86,0,0,0-43.32-18l16.67-124.18-17-17.73-10.08,139.8a152.44,152.44,0,0,0-19.27-2L542.1,290.7l-17.32-18.11L507.47,290.7l11.28,156.72a153,153,0,0,0-19.28,2l-10.06-139.8-17,17.73L489.12,451.5a150.75,150.75,0,0,0-38.2,15c.39,0,.8,0,1.19,0,41.68,2.51,88.83,28,94,78.09l.12,1.13-.08,1.12c-.27,3.74-.34,6.25-.32,7.93h1.51c1.52,0,3.19,0,5-.06l4.74-.07c47.21.43,89.36,24,117.75,65,.66-4.86,1.17-9.77,1.35-14.77L833,616.2l18.1-17.32Z"/><path class="cls-2" d="M546.65,588.09c-16.52,2.15-32,3.85-47.36-4.27-6.13-3.24-10.68-9.4-16.14-13.86a122.32,122.32,0,0,0-19.86-13.12c-12.51-6.58-26.12-9.15-39.63-12.84,26.09-.8,50.38,3.28,72.39,18.26,2.15,1.48,4.78,3.08,7.16,2a5.35,5.35,0,0,0,2.05-1.73c6.67-8.76-.39-26.31-4.72-34.81-5.23-10.11-14.47-21.76-25.41-26.06-19.48-7.67-40.56-7.54-62.06-4.91-7.89,1-15.85,2.28-23.8,3.69-24.94,4.43-50.46,10.27-75.91,6.91-10.48-1.38-21.21-3.57-30.62-8.56a63.55,63.55,0,0,1-12.84-9c-2.52-2.27-8.82-7.27-9.45-10.74a113.38,113.38,0,0,0,13.32,37c11.69,20.64,39,55.8,66.89,48.06,8.65-2.41,15-9,22.2-13.91,9-6.12,17-7,27.69-6,43.22,3.18,125.75,29,111.28,85.55-3.6,13.6-40.66,67.73-11.43,71.29,13.38.29,31.74-8.08,35.91-21.49.67,32.76-38.25,54.8-66,37.34-2.12,8.64,4.43,15.54,11.39,19.64,32.5,19.19,71.26,7.67,106,3.21,18.36-2.34,36.9-4.4,55.42-3.4a134.11,134.11,0,0,1,27.46,4.14c3.28.86,23.75,6.22,24.1,9.91C676.83,669.46,645.8,577.79,546.65,588.09Z"/><path class="cls-2" d="M363.17,649.22a149,149,0,0,0,30.06,5.23q5.16.34,10.33.45c9.84.2,20.07-1.21,29.81-2.65s19.51-3.79,27.43-9.73c40.74-25.79,4.13-56.54-24.42-67.39-10.91-4.15-57.92-9.69-33.06,15.18,5.49,5.48,10.2,14.21,16.94,17.9,11.81,4.46,34.59,8.92,43-2.69-1,1.4.11,8.62-.65,11a22.76,22.76,0,0,1-6.48,9.76c-7,6.47-17.2,9.14-26.34,10.73-2.55.44-5.12.83-7.69,1.15-17.92,2.26-37.27,2.85-54.88-1-9.95-2.19-19-3.65-42.23-16.44C338.57,639.76,358.8,648,363.17,649.22Z"/><polygon class="cls-2" points="910.46 684.39 909.65 709.63 933.41 718.21 909.15 725.24 908.34 750.48 894.15 729.58 869.89 736.61 885.39 716.67 871.2 695.76 894.97 704.34 910.46 684.39"/><polygon class="cls-2" points="798.02 224.23 772.88 221.82 762.83 245.03 757.36 220.35 732.19 217.99 753.95 205.13 748.45 180.46 767.37 197.19 789.14 184.34 779.09 207.5 798.02 224.23"/><polygon class="cls-2" points="153.46 541.07 162.67 564.6 141.4 550.98 121.88 566.97 128.25 542.54 106.99 528.92 132.19 527.45 138.57 503.01 147.78 526.51 172.99 525.04 153.46 541.07"/></svg>