<svg id="Design" xmlns="http://www.w3.org/2000/svg" viewBox="0 0 1080 1080"><defs><style>.cls-1{fill:#fff;}</style></defs><path class="cls-1" d="M376.4,770.85q0-11.8-5.11-20.45a37.27,37.27,0,0,0-13.51-13.55,39,39,0,0,0-18.29-5.31V730a39.89,39.89,0,0,0,22-12.12Q370,708.5,370,694.55q0-18.48-14.07-29.89t-41.58-11.4H246.29V816.53h73.26q18.1,0,30.78-5.94t19.37-16.27A42.19,42.19,0,0,0,376.4,770.85Zm-90.65-86.26h22.48q9.88,0,15.71,4.74a15.75,15.75,0,0,1,5.82,12.88q0,8.61-6.22,13.39t-15.94,4.78H285.75Zm43.33,95.27q-6.09,4.86-18.93,4.86h-24.4V745.81h25.12q11.31,0,17.81,5.55t6.5,14.94Q335.18,775,329.08,779.86Z"/><path class="cls-1" d="M497.26,764.71V755q0-20.16-7.58-34.12a51.08,51.08,0,0,0-21-21.16q-13.39-7.22-30.78-7.22-18.49,0-32.12,7.93a54.4,54.4,0,0,0-21.13,22.17q-7.5,14.22-7.49,33.2,0,29.41,16.54,46.24t45.4,16.82q24.08,0,39.22-10.8a44.12,44.12,0,0,0,18.5-28.82l-35.8-1a17.28,17.28,0,0,1-7.89,9.29,26.43,26.43,0,0,1-13.31,3.23q-11.25,0-17.74-6.86t-6.5-18.09v-1Zm-74.74-38a22.71,22.71,0,0,1,16.22-6.14q9.64,0,15.91,6A20.74,20.74,0,0,1,461,742.07H415.62A21.61,21.61,0,0,1,422.52,726.76Z"/><path class="cls-1" d="M598.7,810.07q11.44,9.16,32.09,8.21a73.82,73.82,0,0,0,12.12-1.55q5-1.15,7.81-2l-5.9-28.14c-.85.22-2.11.47-3.78.76a28,28,0,0,1-4.75.44q-4.69,0-7.29-2.19c-1.73-1.47-2.59-4-2.59-7.62V722.78h22.08v-28.7H626.41V664.74h-39v29.34H550.83V664.74h-39v29.34H495.67v28.7h16.18v59.55q-.17,18.57,11.28,27.74t32.09,8.21a73.82,73.82,0,0,0,12.12-1.55c3.34-.77,5.95-1.42,7.81-2l-5.9-28.14c-.85.22-2.11.47-3.79.76a27.78,27.78,0,0,1-4.74.44q-4.71,0-7.3-2.19c-1.72-1.47-2.59-4-2.59-7.62V722.78h36.59v59.55Q587.27,800.9,598.7,810.07Z"/><path class="cls-1" d="M769,764.71V755q0-20.16-7.57-34.12a51.1,51.1,0,0,0-21-21.16q-13.4-7.22-30.77-7.22-18.5,0-32.13,7.93a54.38,54.38,0,0,0-21.12,22.17q-7.5,14.22-7.5,33.2,0,29.41,16.54,46.24t45.41,16.82q24.08,0,39.22-10.8a44.11,44.11,0,0,0,18.49-28.82l-35.79-1a17.28,17.28,0,0,1-7.89,9.29,26.46,26.46,0,0,1-13.32,3.23q-11.24,0-17.73-6.86t-6.5-18.09v-1Zm-74.74-38a22.72,22.72,0,0,1,16.23-6.14q9.65,0,15.9,6a20.75,20.75,0,0,1,6.34,15.43H687.4A21.56,21.56,0,0,1,694.29,726.76Z"/><path class="cls-1" d="M775.57,694.08V816.53h39V750q.08-10.92,6.69-17.54a22.4,22.4,0,0,1,22.21-5.7,45.57,45.57,0,0,1,5.46,2.11l11.48-32a31.73,31.73,0,0,0-7.9-3.27,34.82,34.82,0,0,0-9.24-1.2,27.73,27.73,0,0,0-17.62,5.94q-7.57,5.94-10.92,18.06h-1.28V694.08Z"/><path class="cls-1" d="M281.06,932.84h32.37q-.31,12.92-9,20.52T279.71,961q-18.34,0-28.46-13t-10.13-36.51q0-23.36,10.41-36.19t28.18-12.84q11.88,0,19.65,5.5a26.55,26.55,0,0,1,10.4,15.47H349.7a58,58,0,0,0-11.64-28.82,65.71,65.71,0,0,0-24.95-19.65,80.34,80.34,0,0,0-34.2-7.1,79.53,79.53,0,0,0-39.46,9.89,72.07,72.07,0,0,0-28.14,28.7Q200.86,885.24,200.86,912q0,25.83,9.89,44.56a70.36,70.36,0,0,0,27.58,28.9q17.7,10.17,41.06,10.17,21,0,37.31-8.33a61.81,61.81,0,0,0,25.51-24q9.24-15.66,9.25-37.59v-21.6h-70.4Z"/><path class="cls-1" d="M451.55,877.23q-13.83-7.93-33.13-7.93t-33.08,7.93A53.77,53.77,0,0,0,364,899.39q-7.45,14.24-7.45,33.13t7.45,33a53.66,53.66,0,0,0,21.33,22.16q13.88,7.93,33.08,7.94t33.13-7.94a53.72,53.72,0,0,0,21.28-22.16q7.46-14.22,7.46-33t-7.46-33.13A53.84,53.84,0,0,0,451.55,877.23Zm-16.7,79.6q-5.75,9.4-16.19,9.41-10.85,0-16.62-9.41t-5.78-24.55q0-15.22,5.78-24.68t16.62-9.44q10.44,0,16.19,9.44t5.74,24.68Q440.59,947.43,434.85,956.83Z"/><polygon class="cls-1" points="537.93 955.24 536.65 955.24 514.09 870.89 473.04 870.89 514.97 993.35 559.61 993.35 601.63 870.89 560.57 870.89 537.93 955.24"/><path class="cls-1" d="M702.19,837.21q-13.35-7.14-31.68-7.13H603.06V993.34h39.46v-50.7h26.79q18.74,0,32.33-6.93a50.21,50.21,0,0,0,21-19.58q7.43-12.63,7.42-29.53t-7.26-29.54A50.57,50.57,0,0,0,702.19,837.21Zm-20,67.52q-6.93,6.82-20.24,6.82H642.52V861.88H662q13.31,0,20.24,6.66t6.94,18.06Q689.16,897.91,682.22,904.73Z"/><polygon class="cls-1" points="839.75 830.08 839.75 895.61 775.42 895.61 775.42 830.08 735.96 830.08 735.96 993.35 775.42 993.35 775.42 927.73 839.75 927.73 839.75 993.35 879.14 993.35 879.14 830.08 839.75 830.08"/><path class="cls-1" d="M323.82,299.3c4.3-.43,8.84-1,13.72-1.66,2.23-.31,4.56-.66,7-1L274,235.53l.6,26.21Z"/><path class="cls-1" d="M371.17,292.24c3.78-.63,7.56-1.27,11.33-1.87,3.52-.56,6.86-1.06,10-1.51l-93-107.4-26.75-.6.59,26.75Z"/><path class="cls-1" d="M687.72,462.11c1,1.72,2,3.47,2.91,5.22l118.83,16,18.95-18.12L683.12,454.71C684.69,457.14,686.25,459.58,687.72,462.11Z"/><path class="cls-1" d="M418.66,286.11c4.58-.29,9.11-.44,13.4-.44h.27l-78.63-103-26.22-.58,90.13,104.1Z"/><path class="cls-1" d="M848.59,408.87,681.14,420.92a160.59,160.59,0,0,0-2.1-20.6l149.37-10.76-18.95-18.12L676.78,389.26A161.17,161.17,0,0,0,657.6,343L764,261.74l.58-26.21-113.2,98a164.89,164.89,0,0,0-13.08-16L765.23,207.61l.59-26.75-26.75.6L629.21,308.36a165.51,165.51,0,0,0-16.06-13.09l98-113.18-26.22.58L603.71,289.09a161.21,161.21,0,0,0-46.28-19.2l17.82-132.66-18.13-18.95L546.35,267.65a160.1,160.1,0,0,0-20.58-2.11L537.82,98.1,519.31,78.75,500.82,98.1l12.05,167.44a160.78,160.78,0,0,0-20.6,2.11L481.52,118.28l-18.13,18.95,17.82,132.66a161.21,161.21,0,0,0-40.82,16c.42,0,.87,0,1.28,0,44.53,2.68,94.91,29.94,100.47,83.44l.13,1.2-.09,1.2c-.29,4-.36,6.67-.34,8.47l1.61,0c1.63,0,3.41,0,5.37-.07l5.07-.08c50.44.46,95.47,25.62,125.8,69.49.71-5.2,1.25-10.45,1.45-15.79l167.45,12.06,19.33-18.51Z"/><path class="cls-1" d="M542.68,415.83c-17.66,2.3-34.25,4.12-50.6-4.56-6.55-3.46-11.42-10-17.24-14.81a131.06,131.06,0,0,0-21.23-14c-13.37-7-27.9-9.77-42.33-13.71,27.87-.86,53.82,3.5,77.34,19.51,2.29,1.57,5.1,3.29,7.64,2.16a5.81,5.81,0,0,0,2.2-1.86c7.13-9.36-.42-28.11-5-37.19-5.59-10.8-15.47-23.24-27.16-27.84-20.8-8.19-43.33-8.05-66.3-5.24-8.43,1-16.93,2.43-25.43,3.94-26.65,4.72-53.91,11-81.1,7.38-11.2-1.47-22.66-3.81-32.72-9.14a68.74,68.74,0,0,1-13.72-9.6c-2.69-2.42-9.42-7.77-10.09-11.48a121.11,121.11,0,0,0,14.23,39.57c12.49,22.05,41.65,59.62,71.46,51.34,9.24-2.57,16-9.6,23.73-14.86,9.6-6.54,18.13-7.51,29.58-6.38,46.18,3.39,134.35,31,118.89,91.39C491,475,451.35,532.8,482.58,536.61c14.3.31,33.91-8.64,38.36-23,.72,35-40.86,58.55-70.48,39.9-2.26,9.23,4.73,16.6,12.17,21,34.73,20.5,76.14,8.2,113.23,3.43,19.61-2.5,39.43-4.7,59.21-3.63a144,144,0,0,1,29.34,4.42c3.5.93,25.37,6.65,25.75,10.59C681.76,502.77,648.61,404.83,542.68,415.83Z"/><path class="cls-1" d="M424.87,402c-11.66-4.43-61.89-10.35-35.33,16.22,5.86,5.86,10.9,15.19,18.1,19.13,12.62,4.76,37,9.53,46-2.88-1.08,1.5.12,9.21-.69,11.75A24.22,24.22,0,0,1,446,456.63c-7.49,6.92-18.38,9.77-28.14,11.46q-4.1.72-8.22,1.24c-19.15,2.41-39.83,3-58.64-1.1-10.63-2.34-20.27-3.9-45.11-17.57C320.36,471,342,479.85,346.65,481.15a159.83,159.83,0,0,0,32.11,5.58q5.52.38,11,.48c10.52.22,21.44-1.29,31.85-2.84s20.84-4,29.3-10.39C494.48,446.43,455.36,413.58,424.87,402Z"/></svg>