<svg id="Design" xmlns="http://www.w3.org/2000/svg" viewBox="0 0 1080 1080"><defs><style>.cls-1{fill:#0032a0;}</style></defs><path class="cls-1" d="M376.4,770.85q0-11.8-5.11-20.45a37.27,37.27,0,0,0-13.51-13.55,39,39,0,0,0-18.29-5.31V730a39.89,39.89,0,0,0,22-12.12Q370,708.5,370,694.55q0-18.48-14.07-29.89t-41.58-11.4H246.29V816.53h73.26q18.1,0,30.78-5.94t19.37-16.27A42.19,42.19,0,0,0,376.4,770.85Zm-90.65-86.26h22.48q9.88,0,15.71,4.74a15.75,15.75,0,0,1,5.82,12.88q0,8.61-6.22,13.39t-15.94,4.78H285.75Zm43.33,95.27q-6.09,4.86-18.93,4.86h-24.4V745.81h25.12q11.31,0,17.81,5.55t6.5,14.94Q335.18,775,329.08,779.86Z"/><path class="cls-1" d="M497.26,764.71V755q0-20.16-7.58-34.12a51.08,51.08,0,0,0-21-21.16q-13.39-7.22-30.78-7.22-18.49,0-32.12,7.93a54.4,54.4,0,0,0-21.13,22.17q-7.5,14.22-7.49,33.2,0,29.41,16.54,46.24t45.4,16.82q24.08,0,39.22-10.8a44.12,44.12,0,0,0,18.5-28.82l-35.8-1a17.28,17.28,0,0,1-7.89,9.29,26.43,26.43,0,0,1-13.31,3.23q-11.25,0-17.74-6.86t-6.5-18.09v-1Zm-74.74-38a22.71,22.71,0,0,1,16.22-6.14q9.64,0,15.91,6A20.74,20.74,0,0,1,461,742.07H415.62A21.61,21.61,0,0,1,422.52,726.76Z"/><path class="cls-1" d="M598.7,810.07q11.44,9.16,32.09,8.21a73.82,73.82,0,0,0,12.12-1.55q5-1.15,7.81-2l-5.9-28.14c-.85.22-2.11.47-3.78.76a28,28,0,0,1-4.75.44q-4.69,0-7.29-2.19c-1.73-1.47-2.59-4-2.59-7.62V722.78h22.08v-28.7H626.41V664.74h-39v29.34H550.83V664.74h-39v29.34H495.67v28.7h16.18v59.55q-.17,18.57,11.28,27.74t32.09,8.21a73.82,73.82,0,0,0,12.12-1.55c3.34-.77,5.95-1.42,7.81-2l-5.9-28.14c-.85.22-2.11.47-3.79.76a27.78,27.78,0,0,1-4.74.44q-4.71,0-7.3-2.19c-1.72-1.47-2.59-4-2.59-7.62V722.78h36.59v59.55Q587.27,800.9,598.7,810.07Z"/><path class="cls-1" d="M769,764.71V755q0-20.16-7.57-34.12a51.1,51.1,0,0,0-21-21.16q-13.4-7.22-30.77-7.22-18.5,0-32.13,7.93a54.38,54.38,0,0,0-21.12,22.17q-7.5,14.22-7.5,33.2,0,29.41,16.54,46.24t45.41,16.82q24.08,0,39.22-10.8a44.11,44.11,0,0,0,18.49-28.82l-35.79-1a17.28,17.28,0,0,1-7.89,9.29,26.46,26.46,0,0,1-13.32,3.23q-11.24,0-17.73-6.86t-6.5-18.09v-1Zm-74.74-38a22.72,22.72,0,0,1,16.23-6.14q9.65,0,15.9,6a20.75,20.75,0,0,1,6.34,15.43H687.4A21.56,21.56,0,0,1,694.29,726.76Z"/><path class="cls-1" d="M775.57,694.08V816.53h39V750q.08-10.92,6.69-17.54a22.4,22.4,0,0,1,22.21-5.7,45.57,45.57,0,0,1,5.46,2.11l11.48-32a31.73,31.73,0,0,0-7.9-3.27,34.82,34.82,0,0,0-9.24-1.2,27.73,27.73,0,0,0-17.62,5.94q-7.57,5.94-10.92,18.06h-1.28V694.08Z"/><path class="cls-1" d="M281.06,932.84h32.37q-.31,12.92-9,20.52T279.71,961q-18.34,0-28.46-13t-10.13-36.51q0-23.36,10.41-36.19t28.18-12.84q11.88,0,19.65,5.5a26.55,26.55,0,0,1,10.4,15.47H349.7a58,58,0,0,0-11.64-28.82,65.71,65.71,0,0,0-24.95-19.65,80.34,80.34,0,0,0-34.2-7.1,79.53,79.53,0,0,0-39.46,9.89,72.07,72.07,0,0,0-28.14,28.7Q200.86,885.24,200.86,912q0,25.83,9.89,44.56a70.36,70.36,0,0,0,27.58,28.9q17.7,10.17,41.06,10.17,21,0,37.31-8.33a61.81,61.81,0,0,0,25.51-24q9.24-15.66,9.25-37.59v-21.6h-70.4Z"/><path class="cls-1" d="M451.55,877.23q-13.83-7.93-33.13-7.93t-33.08,7.93A53.77,53.77,0,0,0,364,899.39q-7.45,14.24-7.45,33.13t7.45,33a53.66,53.66,0,0,0,21.33,22.16q13.88,7.93,33.08,7.94t33.13-7.94a53.72,53.72,0,0,0,21.28-22.16q7.46-14.22,7.46-33t-7.46-33.13A53.84,53.84,0,0,0,451.55,877.23Zm-16.7,79.6q-5.75,9.4-16.19,9.41-10.85,0-16.62-9.41t-5.78-24.55q0-15.22,5.78-24.68t16.62-9.44q10.44,0,16.19,9.44t5.74,24.68Q440.59,947.43,434.85,956.83Z"/><polygon class="cls-1" points="537.93 955.24 536.65 955.24 514.09 870.89 473.04 870.89 514.97 993.35 559.61 993.35 601.63 870.89 560.57 870.89 537.93 955.24"/><path class="cls-1" d="M702.19,837.21q-13.35-7.14-31.68-7.13H603.06V993.34h39.46v-50.7h26.79q18.74,0,32.33-6.93a50.21,50.21,0,0,0,21-19.58q7.43-12.63,7.42-29.53t-7.26-29.54A50.57,50.57,0,0,0,702.19,837.21Zm-20,67.52q-6.93,6.82-20.24,6.82H642.52V861.88H662q13.31,0,20.24,6.66t6.94,18.06Q689.16,897.91,682.22,904.73Z"/><polygon class="cls-1" points="839.75 830.08 839.75 895.61 775.42 895.61 775.42 830.08 735.96 830.08 735.96 993.35 775.42 993.35 775.42 927.73 839.75 927.73 839.75 993.35 879.14 993.35 879.14 830.08 839.75 830.08"/><path class="cls-1" d="M376.8,368.27c-51.81-5-89.23,56.81-139.9,34.58,4.91,57.17,228,99.18,217.42,30.66-9,12.4-33.29,7.66-45.87,2.9-7.18-4-12.2-13.26-18.05-19.11C355.68,366.25,486.84,412.5,475,451c-3.87,12.54-5.06,23.23-12.12,35-7.27,12.15-16.29,23.15-23.83,35.12-16.5,26.2-17.46,53.52,9.7,73.74,10.59,7.87,24.19,10.36,37.33,11.54,38.4,3.46,74.36-10.42,112.86-12.62,17.88-1,36-1.69,53.57,1.49,26.72,4.83,42.08,17.71,57.83,38.49-1.89-37.34-3.82-75-13-111.21A184.12,184.12,0,0,0,676.38,468v0c.31-1.17.62-2.33.91-3.51l132.33,17.77,18.91-18.08-149-10.72a161.8,161.8,0,0,0,2.09-20.55l167,12,19.28-18.46L848.64,408l-167,12a161.8,161.8,0,0,0-2.09-20.55l149-10.72-18.91-18.08L677.28,388.44a160.57,160.57,0,0,0-19.13-46.16l106.14-81,.58-26.14L652,332.85a166.69,166.69,0,0,0-13-16L765.5,207.28l.59-26.69-26.68.6L629.83,307.76a163.4,163.4,0,0,0-16-13.06l97.75-112.89-26.15.58-81,106.15a160.66,160.66,0,0,0-46.16-19.15L576,137.07l-18.07-18.9-10.74,149a161.12,161.12,0,0,0-20.53-2.1l12-167-18.46-19.3-18.45,19.3,12,167a161.43,161.43,0,0,0-20.55,2.1l-10.73-149-18.07,18.9,17.77,132.32a160.54,160.54,0,0,0-46.16,19.15l-81-106.15-26.15-.58,97.74,112.91c-2,1.45-4,3-6,4.5-5.35.32-10.73.83-16.12,1.48L301.06,181.19l-26.68-.6.59,26.69,111,96h0c-8.8,1.39-17.62,2.93-26.46,4.39h0l-83.87-72.6.6,26.14,64.64,49.34c-36.27,5.08-71.92,5.75-103.92-15.22,36.59,46.86,87.47,35.09,138.54,26.19,8.47-1.48,16.95-2.88,25.37-3.92,22.9-2.81,45.37-3,66.1,5.22,11.67,4.6,21.54,17,27.08,27.79,4.65,9,12.16,27.74,5.05,37.07a5.86,5.86,0,0,1-2.21,1.87c-2.53,1.11-5.33-.6-7.61-2.16-23.45-16-49.35-20.31-77.12-19.46,14.38,3.92,28.89,6.66,42.22,13.69a128.58,128.58,0,0,1,21.15,14c5.82,4.74,10.66,11.31,17.21,14.78,16.31,8.63,32.86,6.84,50.45,4.54,105.68-11,138.72,86.71,147.1,173-.38-3.92-22.18-9.62-25.68-10.56A141.83,141.83,0,0,0,635.29,573c-19.74-1.06-39.5,1.11-59,3.62-37,4.74-78.31,17-112.94-3.42-7.42-4.38-14.38-11.71-12.15-20.92,29.57,18.61,71-4.88,70.33-39.79-4.45,14.3-24,23.2-38.28,22.9-31.16-3.79,8.33-61.48,12.17-76C510.78,399.22,422.85,371.68,376.8,368.27Zm-53.3,68.94a214.67,214.67,0,0,1-36.45-11.08c13.09-6,26.29-14.48,39.43-21.2C325.43,413.67,324.23,425.29,323.5,437.21Z"/></svg>