<svg id="Design" xmlns="http://www.w3.org/2000/svg" viewBox="0 0 1200 300"><defs><style>.cls-1{font-size:126.45px;font-family:Inter-ExtraBold, Inter;font-weight:800;letter-spacing:-0.06em;}.cls-1,.cls-6{fill:#fff;}.cls-2{letter-spacing:-0.07em;}.cls-3{letter-spacing:-0.06em;}.cls-4{letter-spacing:-0.08em;}.cls-5{letter-spacing:-0.09em;}</style></defs><text class="cls-1" transform="translate(382.28 216.57)">Bet<tspan class="cls-2" x="187.62" y="0">t</tspan><tspan class="cls-3" x="229.47" y="0">erG</tspan><tspan class="cls-4" x="436.04" y="0">o</tspan><tspan class="cls-5" x="504.52" y="0">v</tspan><tspan x="567.93" y="0">.PH</tspan></text><path class="cls-6" d="M100.09,132.51c2.16-.22,4.45-.49,6.91-.84,1.12-.15,2.29-.33,3.54-.52L75,100.41l.3,13.19Z"/><path class="cls-6" d="M123.92,129c1.91-.32,3.81-.64,5.71-.94s3.45-.54,5.06-.76L87.88,73.19l-13.46-.3.3,13.47Z"/><path class="cls-6" d="M283.28,214.47c.5.86,1,1.75,1.46,2.63l59.82,8L354.1,216,281,210.74C281.75,212,282.53,213.19,283.28,214.47Z"/><path class="cls-6" d="M147.83,125.87c2.31-.14,4.59-.22,6.75-.22h.13L115.13,73.8l-13.2-.29,45.37,52.4Z"/><path class="cls-6" d="M364.26,187.67,280,193.73a80.58,80.58,0,0,0-1-10.37L354.1,178l-9.54-9.12-66.79,9a80.88,80.88,0,0,0-9.66-23.3l53.57-40.9.3-13.19-57,49.33a80.84,80.84,0,0,0-6.58-8.08l63.88-55.3.3-13.47-13.46.3-55.31,63.88a84.11,84.11,0,0,0-8.08-6.59l49.34-57-13.2.29L241,127.37a81.28,81.28,0,0,0-23.3-9.66l9-66.79-9.13-9.54-5.42,75.2a81.86,81.86,0,0,0-10.36-1.07l6.07-84.28-9.32-9.74-9.31,9.74,6.07,84.28a82.21,82.21,0,0,0-10.37,1.07l-5.41-75.2-9.13,9.54,9,66.79a81.24,81.24,0,0,0-20.55,8.05l.65,0c22.41,1.35,47.77,15.07,50.57,42l.07.61-.05.6c-.14,2-.18,3.36-.17,4.27h.81l2.7,0,2.56,0c25.39.23,48,12.9,63.32,35,.36-2.62.63-5.26.73-7.95l84.3,6.07L374,197Z"/><path class="cls-6" d="M210.26,191.17c-8.88,1.16-17.24,2.07-25.47-2.29-3.29-1.75-5.75-5.06-8.68-7.46a66.26,66.26,0,0,0-10.68-7.06c-6.73-3.53-14.05-4.91-21.31-6.9,14-.43,27.09,1.76,38.93,9.82,1.15.79,2.57,1.66,3.85,1.09a2.83,2.83,0,0,0,1.1-.93c3.59-4.72-.21-14.16-2.54-18.73-2.81-5.43-7.78-11.7-13.66-14-10.48-4.13-21.82-4.06-33.38-2.64-4.24.52-8.52,1.22-12.8,2-13.42,2.38-27.14,5.52-40.83,3.72-5.64-.74-11.41-1.92-16.47-4.6a34.78,34.78,0,0,1-6.9-4.83c-1.36-1.22-4.75-3.91-5.09-5.78a61.16,61.16,0,0,0,7.17,19.92c6.28,11.1,21,30,36,25.84,4.65-1.29,8.06-4.84,12-7.48,4.83-3.29,9.12-3.78,14.89-3.21,23.24,1.7,67.63,15.61,59.84,46-1.93,7.32-21.86,36.43-6.14,38.35,7.2.16,17.07-4.35,19.31-11.56.36,17.62-20.57,29.47-35.48,20.08-1.14,4.65,2.38,8.36,6.13,10.57,17.48,10.32,38.33,4.12,57,1.72,9.87-1.26,19.84-2.36,29.8-1.83a72.23,72.23,0,0,1,14.77,2.23c1.76.47,12.77,3.35,13,5.33C280.28,234.94,263.59,185.63,210.26,191.17Z"/><path class="cls-6" d="M151,184.2c-5.87-2.23-31.15-5.21-17.79,8.16,3,2.95,5.49,7.65,9.12,9.63,6.35,2.4,18.6,4.8,23.14-1.45-.55.76.06,4.64-.35,5.92a12.12,12.12,0,0,1-3.49,5.25c-3.76,3.48-9.25,4.92-14.16,5.77-1.37.24-2.75.45-4.14.62-9.64,1.22-20,1.53-29.51-.55-5.36-1.18-10.21-2-22.72-8.85a43.53,43.53,0,0,0,20.52,15.35,79.94,79.94,0,0,0,16.17,2.81q2.77.19,5.55.24a97.08,97.08,0,0,0,16-1.42c5.17-.77,10.49-2,14.75-5.23C186,206.58,166.31,190,151,184.2Z"/></svg>